<svg viewBox="0 0 200 100" fill="none" role="img" xmlns="http://www.w3.org/2000/svg">
  <!-- Row 1 -->
  <!-- Avatar 1: Beam face -->
  <svg x="0" y="0" viewBox="0 0 36 36" width="50" height="50">
    <mask id="mask1" maskUnits="userSpaceOnUse" x="0" y="0" width="36" height="36"><rect width="36" height="36" rx="72" fill="#FFFFFF"></rect></mask>
    <g mask="url(#mask1)"><rect width="36" height="36" fill="#49007e"></rect><rect x="0" y="0" width="36" height="36" transform="translate(7 1) rotate(133 18 18) scale(1.1)" fill="#ff7d10" rx="6"></rect><g transform="translate(3.5 -2) rotate(-3 18 18)"><path d="M15 20c2 1 4 1 6 0" stroke="#000000" fill="none" stroke-linecap="round"></path><rect x="11" y="14" width="1.5" height="2" rx="1" stroke="none" fill="#000000"></rect><rect x="23" y="14" width="1.5" height="2" rx="1" stroke="none" fill="#000000"></rect></g></g>
  </svg>

  <!-- Avatar 2: Sunset -->
  <svg x="50" y="0" viewBox="0 0 90 90" width="50" height="50">
    <mask id="mask2" maskUnits="userSpaceOnUse" x="0" y="0" width="90" height="90"><rect width="90" height="90" rx="180" fill="#FFFFFF"></rect></mask>
    <g mask="url(#mask2)"><path d="M0 0h90v45H0z" fill="#49007e"></path><path d="M0 45h90v45H0z" fill="#ff005b"></path><path d="M83 45a38 38 0 00-76 0h76z" fill="#ff005b"></path><path d="M83 45a38 38 0 01-76 0h76z" fill="#ff7d10"></path><path d="M77 45a32 32 0 10-64 0h64z" fill="#ff7d10"></path><path d="M77 45a32 32 0 11-64 0h64z" fill="#ffb238"></path><path d="M71 45a26 26 0 00-52 0h52z" fill="#ffb238"></path><path d="M71 45a26 26 0 01-52 0h52z" fill="#49007e"></path><circle cx="45" cy="45" r="23" fill="#0a0310"></circle></g>
  </svg>

  <!-- Avatar 3: Pixel -->
  <svg x="100" y="0" viewBox="0 0 80 80" width="50" height="50">
    <mask id="mask3" mask-type="alpha" maskUnits="userSpaceOnUse" x="0" y="0" width="80" height="80"><rect width="80" height="80" rx="160" fill="#FFFFFF"></rect></mask>
    <g mask="url(#mask3)"><rect width="10" height="10" fill="#0a0310"></rect><rect x="20" width="10" height="10" fill="#49007e"></rect><rect x="40" width="10" height="10" fill="#49007e"></rect><rect x="60" width="10" height="10" fill="#49007e"></rect><rect x="10" width="10" height="10" fill="#ff005b"></rect><rect x="30" width="10" height="10" fill="#49007e"></rect><rect x="50" width="10" height="10" fill="#0a0310"></rect><rect x="70" width="10" height="10" fill="#0a0310"></rect><rect y="10" width="10" height="10" fill="#49007e"></rect><rect y="20" width="10" height="10" fill="#ff005b"></rect><rect y="30" width="10" height="10" fill="#49007e"></rect><rect y="40" width="10" height="10" fill="#49007e"></rect><rect y="50" width="10" height="10" fill="#ff7d10"></rect><rect y="60" width="10" height="10" fill="#ff005b"></rect><rect y="70" width="10" height="10" fill="#ff005b"></rect><rect x="20" y="10" width="10" height="10" fill="#0a0310"></rect><rect x="20" y="20" width="10" height="10" fill="#ff005b"></rect><rect x="20" y="30" width="10" height="10" fill="#49007e"></rect><rect x="20" y="40" width="10" height="10" fill="#49007e"></rect><rect x="20" y="50" width="10" height="10" fill="#ff005b"></rect><rect x="20" y="60" width="10" height="10" fill="#ff005b"></rect><rect x="20" y="70" width="10" height="10" fill="#ff005b"></rect><rect x="40" y="10" width="10" height="10" fill="#ffb238"></rect><rect x="40" y="20" width="10" height="10" fill="#ff7d10"></rect><rect x="40" y="30" width="10" height="10" fill="#ff005b"></rect><rect x="40" y="40" width="10" height="10" fill="#ff7d10"></rect><rect x="40" y="50" width="10" height="10" fill="#49007e"></rect><rect x="40" y="60" width="10" height="10" fill="#49007e"></rect><rect x="40" y="70" width="10" height="10" fill="#0a0310"></rect><rect x="60" y="10" width="10" height="10" fill="#ff005b"></rect><rect x="60" y="20" width="10" height="10" fill="#ff7d10"></rect><rect x="60" y="30" width="10" height="10" fill="#49007e"></rect><rect x="60" y="40" width="10" height="10" fill="#ff7d10"></rect><rect x="60" y="50" width="10" height="10" fill="#ffb238"></rect><rect x="60" y="60" width="10" height="10" fill="#ff005b"></rect><rect x="60" y="70" width="10" height="10" fill="#49007e"></rect><rect x="10" y="10" width="10" height="10" fill="#ff005b"></rect><rect x="10" y="20" width="10" height="10" fill="#49007e"></rect><rect x="10" y="30" width="10" height="10" fill="#49007e"></rect><rect x="10" y="40" width="10" height="10" fill="#ff005b"></rect><rect x="10" y="50" width="10" height="10" fill="#ff005b"></rect><rect x="10" y="60" width="10" height="10" fill="#ff005b"></rect><rect x="10" y="70" width="10" height="10" fill="#49007e"></rect><rect x="30" y="10" width="10" height="10" fill="#ff005b"></rect><rect x="30" y="20" width="10" height="10" fill="#ff005b"></rect><rect x="30" y="30" width="10" height="10" fill="#ff005b"></rect><rect x="30" y="40" width="10" height="10" fill="#ff005b"></rect><rect x="30" y="50" width="10" height="10" fill="#ff005b"></rect><rect x="30" y="60" width="10" height="10" fill="#0a0310"></rect><rect x="30" y="70" width="10" height="10" fill="#ff005b"></rect><rect x="50" y="10" width="10" height="10" fill="#ffb238"></rect><rect x="50" y="20" width="10" height="10" fill="#ffb238"></rect><rect x="50" y="30" width="10" height="10" fill="#ff7d10"></rect><rect x="50" y="40" width="10" height="10" fill="#49007e"></rect><rect x="50" y="50" width="10" height="10" fill="#ff005b"></rect><rect x="50" y="60" width="10" height="10" fill="#49007e"></rect><rect x="50" y="70" width="10" height="10" fill="#49007e"></rect><rect x="70" y="10" width="10" height="10" fill="#ffb238"></rect><rect x="70" y="20" width="10" height="10" fill="#49007e"></rect><rect x="70" y="30" width="10" height="10" fill="#ff005b"></rect><rect x="70" y="40" width="10" height="10" fill="#49007e"></rect><rect x="70" y="50" width="10" height="10" fill="#ff7d10"></rect><rect x="70" y="60" width="10" height="10" fill="#ff7d10"></rect><rect x="70" y="70" width="10" height="10" fill="#ff7d10"></rect></g>
  </svg>

  <!-- Avatar 4: Bauhaus -->
  <svg x="150" y="0" viewBox="0 0 80 80" width="50" height="50">
    <mask id="mask4" maskUnits="userSpaceOnUse" x="0" y="0" width="80" height="80"><rect width="80" height="80" rx="160" fill="#FFFFFF"></rect></mask>
    <g mask="url(#mask4)"><rect width="80" height="80" fill="#ff005b"></rect><rect x="10" y="30" width="80" height="80" fill="#ff7d10" transform="translate(-6 6) rotate(284 40 40)"></rect><circle cx="40" cy="40" fill="#ffb238" r="16" transform="translate(-15 15)"></circle><line x1="0" y1="40" x2="80" y2="40" stroke-width="2" stroke="#0a0310" transform="translate(-8 -8) rotate(208 40 40)"></line></g>
  </svg>

  <!-- Row 2 -->
  <!-- Avatar 5: Marble -->
  <svg x="0" y="50" viewBox="0 0 80 80" width="50" height="50">
    <mask id="mask5" maskUnits="userSpaceOnUse" x="0" y="0" width="80" height="80"><rect width="80" height="80" rx="160" fill="#FFFFFF"></rect></mask>
    <g mask="url(#mask5)"><rect width="80" height="80" fill="#49007e"></rect><path filter="url(#filter5)" d="M32.414 59.35L50.376 70.5H72.5v-71H33.728L26.5 13.381l19.057 27.08L32.414 59.35z" fill="#ff005b" transform="translate(-2 2) rotate(-82 40 40) scale(1.5)"></path><path filter="url(#filter5)" d="M22.216 24L0 46.75l14.108 38.129L78 86l-3.081-59.276-22.378 4.005 12.972 20.186-23.35 27.395L22.215 24z" fill="#ff7d10" transform="translate(-7 7) rotate(-303 40 40) scale(1.5)" style="mix-blend-mode: overlay;"></path></g>
    <defs><filter id="filter5" filterUnits="userSpaceOnUse" color-interpolation-filters="sRGB"><feFlood flood-opacity="0" result="BackgroundImageFix"></feFlood><feBlend in="SourceGraphic" in2="BackgroundImageFix" result="shape"></feBlend><feGaussianBlur stdDeviation="7" result="effect1_foregroundBlur"></feGaussianBlur></filter></defs>
  </svg>

  <!-- Avatar 6: Gradient -->
  <svg x="50" y="50" viewBox="0 0 80 80" width="50" height="50">
    <mask id="mask6" maskUnits="userSpaceOnUse" x="0" y="0" width="80" height="80"><rect width="80" height="80" rx="160" fill="#FFFFFF"></rect></mask>
    <g mask="url(#mask6)"><path fill="url(#gradient6a)" d="M0 0h80v40H0z"></path><path fill="url(#gradient6b)" d="M0 40h80v40H0z"></path></g>
    <defs><linearGradient id="gradient6a" x1="40" y1="0" x2="40" y2="40" gradientUnits="userSpaceOnUse"><stop stop-color="#ff7d10"></stop><stop offset="1" stop-color="#ffb238"></stop></linearGradient><linearGradient id="gradient6b" x1="40" y1="40" x2="40" y2="80" gradientUnits="userSpaceOnUse"><stop stop-color="#0a0310"></stop><stop offset="1" stop-color="#49007e"></stop></linearGradient></defs>
  </svg>

  <!-- Avatar 7: Beam face -->
  <svg x="100" y="50" viewBox="0 0 36 36" width="50" height="50">
    <mask id="mask7" maskUnits="userSpaceOnUse" x="0" y="0" width="36" height="36"><rect width="36" height="36" rx="72" fill="#FFFFFF"></rect></mask>
    <g mask="url(#mask7)"><rect width="36" height="36" fill="#ff7d10"></rect><rect x="0" y="0" width="36" height="36" transform="translate(4 4) rotate(280 18 18) scale(1.1)" fill="#0a0310" rx="36"></rect><g transform="translate(0 -2) rotate(0 18 18)"><path d="M15 20c2 1 4 1 6 0" stroke="#FFFFFF" fill="none" stroke-linecap="round"></path><rect x="14" y="14" width="1.5" height="2" rx="1" stroke="none" fill="#FFFFFF"></rect><rect x="20" y="14" width="1.5" height="2" rx="1" stroke="none" fill="#FFFFFF"></rect></g></g>
  </svg>

  <!-- Avatar 8: Sunset -->
  <svg x="150" y="50" viewBox="0 0 90 90" width="50" height="50">
    <mask id="mask8" maskUnits="userSpaceOnUse" x="0" y="0" width="90" height="90"><rect width="90" height="90" rx="180" fill="#FFFFFF"></rect></mask>
    <g mask="url(#mask8)"><path d="M0 0h90v45H0z" fill="#0a0310"></path><path d="M0 45h90v45H0z" fill="#49007e"></path><path d="M83 45a38 38 0 00-76 0h76z" fill="#49007e"></path><path d="M83 45a38 38 0 01-76 0h76z" fill="#ff005b"></path><path d="M77 45a32 32 0 10-64 0h64z" fill="#ff005b"></path><path d="M77 45a32 32 0 11-64 0h64z" fill="#ff7d10"></path><path d="M71 45a26 26 0 00-52 0h52z" fill="#ff7d10"></path><path d="M71 45a26 26 0 01-52 0h52z" fill="#0a0310"></path><circle cx="45" cy="45" r="23" fill="#ffb238"></circle></g>
  </svg>
</svg>
